#!OML:ASF H:\Terrain\Patient Classification 1\Walking\liu\liu.ASF
:FULLY-SPECIFIED
:DEGREES
109
root 9.72778 16.5433 -17.5609 3.94446 -1.97503 3.14793
lowerback -5.05618 -2.1837 -5.3044
upperback -0.292379 -2.66744 2.1244
thorax 2.87997 -1.41447 4.98102
lowerneck -21.6695 -3.83802 -12.5582
upperneck 22.3253 -4.41119 12.1788
head 11.4195 -1.57663 5.95073
rclavicle -5.00689e-014 -2.46493e-014
rhumerus -44.7817 13.5354 -86.8397
rradius 35.7496
rwrist -18.0974
rhand -28.9183 -22.4606
rfingers 7.12502
rthumb -2.27279 -52.4282
lclavicle -5.00689e-014 -2.46493e-014
lhumerus -18.8818 -6.13619 84.2574
lradius 20.3239
lwrist -7.88016
lhand -12.1601 -24.3223
lfingers 7.12502
lthumb 13.9027 5.19295
rfemur -26.9045 -5.76665 17.9201
rtibia 61.4001
rfoot -17.147 -11.1953
rtoes -15.0745
lfemur -12.7846 4.86911 -28.9884
ltibia 24.5759
lfoot -16.174 6.61439
ltoes -2.77697
110
root 9.73459 16.5298 -17.444 3.91039 -1.68051 3.24862
lowerback -5.28302 -2.36709 -5.2129
upperback -0.0964541 -2.8992 1.96928
thorax 3.22759 -1.54158 4.7342
lowerneck -21.5979 -3.73249 -12.3195
upperneck 22.0652 -4.32818 12.1678
head 11.2893 -1.51929 5.90531
rclavicle 1.00635e-014 -1.51076e-014
rhumerus -44.5793 13.5007 -87.0337
rradius 35.6218
rwrist -18.259
rhand -28.3326 -22.2199
rfingers 7.12502
rthumb -1.70711 -52.1928
lclavicle 1.00635e-014 -1.51076e-014
lhumerus -18.0042 -6.36379 83.8603
lradius 20.4948
lwrist -6.91356
lhand -12.3986 -24.1796
lfingers 7.12502
lthumb 13.6728 5.35128
rfemur -27.7299 -5.62208 17.964
rtibia 60.338
rfoot -17.377 -11.6828
rtoes -15.3707
lfemur -12.2147 4.53406 -29.105
ltibia 24.5078
lfoot -16.5846 6.79754
ltoes -2.12477
111
root 9.7402 16.518 -17.3231 3.79312 -1.40724 3.49596
lowerback -4.93108 -2.51789 -5.66816
upperback -0.256881 -3.09832 2.10124
thorax 2.91998 -1.63644 5.12906
lowerneck -21.4664 -3.66679 -12.5127
upperneck 22.2291 -4.20324 12.1907
head 11.3114 -1.48185 5.97462
rclavicle 1.73937e-015 -4.77083e-015
rhumerus -45.1467 13.8773 -86.9862
rradius 35.7367
rwrist -18.6099
rhand -28.7319 -21.9068
rfingers 7.12502
rthumb -2.09283 -51.8763
lclavicle 1.73937e-015 -4.77083e-015
lhumerus -17.7512 -6.00438 83.9692
lradius 20.7069
lwrist -7.23704
lhand -12.7044 -24.3669
lfingers 7.12502
lthumb 13.3782 5.18357
rfemur -28.4137 -5.51304 17.8057
rtibia 59.1744
rfoot -17.7368 -11.8823
rtoes -16.8809
lfemur -11.5694 4.62663 -29.3723
ltibia 24.3585
lfoot -16.9135 6.76692
ltoes -2.45844
112
root 9.74777 16.5055 -17.1995 3.61813 -1.2799 3.63303
lowerback -4.55071 -2.51267 -5.95129
upperback -0.429045 -3.10471 2.27728
thorax 2.55373 -1.6291 5.4929
lowerneck -21.1795 -3.76965 -12.7507
upperneck 22.4069 -4.27175 12.0216
head 11.3343 -1.56398 5.94464
rclavicle 2.28602e-015 -1.98785e-014
rhumerus -45.8709 14.1319 -86.8891
rradius 35.9469
rwrist -19.2279
rhand -29.7674 -21.5389
rfingers 7.12502
rthumb -3.09287 -51.4962
lclavicle 2.28602e-015 -1.98785e-014
lhumerus -17.6498 -5.66958 84.3544
lradius 21.0538
lwrist -7.62527
lhand -12.2428 -24.3241
lfingers 7.12502
lthumb 13.823 5.19664
rfemur -28.9566 -5.20861 17.718
rtibia 57.8877
rfoot -18.4896 -11.6386
rtoes -16.0847
lfemur -10.8076 4.51715 -29.536
ltibia 24.1011
lfoot -17.0649 7.04714
ltoes -1.99928
113
root 9.75697 16.4983 -17.0752 3.59327 -1.17395 3.57851
lowerback -4.94975 -2.53466 -5.5823
upperback -0.12522 -3.12386 2.13133
thorax 3.06786 -1.65603 5.10601
lowerneck -21.0376 -3.84174 -12.7037
upperneck 21.9347 -4.40792 12.1592
head 11.1538 -1.60476 5.94504
rclavicle 9.96408e-015 5.56597e-015
rhumerus -46.0597 14.5102 -87.496
rradius 36.4964
rwrist -20.6494
rhand -30.9923 -21.3062
rfingers 7.12502
rthumb -4.27567 -51.243
lclavicle 9.96408e-015 5.56597e-015
lhumerus -16.6962 -6.18734 84.1385
lradius 21.3717
lwrist -6.62456
lhand -11.3479 -23.8316
lfingers 7.12502
lthumb 14.6853 5.62836
rfemur -29.6414 -4.80756 17.8253
rtibia 56.5073
rfoot -18.4777 -12.191
rtoes -14.2721
lfemur -10.0761 4.14201 -29.5148
ltibia 23.7501
lfoot -17.3828 7.34982
ltoes -1.52209
114
root 9.76342 16.4936 -16.9562 3.78172 -0.859339 3.69564
lowerback -5.54903 -2.75002 -5.49796
upperback 0.219996 -3.37496 1.97009
thorax 3.78273 -1.80662 4.83226
lowerneck -21.48 -3.74034 -12.804
upperneck 21.7871 -4.29129 12.6408
head 11.1816 -1.48904 6.16642
rclavicle 3.88127e-014 1.59028e-015
rhumerus -46.2609 15.3481 -88.2269
rradius 37.4363
rwrist -22.1676
rhand -30.8422 -23.148
rfingers 7.12502
rthumb -4.13074 -53.0877
lclavicle 3.88127e-014 1.59028e-015
lhumerus -15.5941 -7.51633 83.7502
lradius 21.8581
lwrist -4.34916
lhand -11.2038 -23.4648
lfingers 7.12502
lthumb 14.8242 5.98495
rfemur -30.542 -4.56684 17.7476
rtibia 55.0442
rfoot -18.4957 -12.4365
rtoes -15.8574
lfemur -9.54123 3.79751 -29.6584
ltibia 23.3169
lfoot -17.7891 7.28131
ltoes -2.22922
115
root 9.76637 16.4896 -16.834 3.88279 -0.575169 3.81428
lowerback -5.71674 -2.88841 -5.64745
upperback 0.238023 -3.54008 1.96162
thorax 3.92608 -1.89602 4.88277
lowerneck -21.6785 -3.67102 -12.8063
upperneck 22.0426 -4.19432 12.6632
head 11.3006 -1.43894 6.20598
rclavicle -1.38901e-014 2.8625e-014
rhumerus -46.2456 15.0001 -87.9639
rradius 37.2864
rwrist -21.3096
rhand -29.0725 -25.6589
rfingers 7.12502
rthumb -2.42169 -55.6249
lclavicle -1.38901e-014 2.8625e-014
lhumerus -15.1617 -8.56266 83.7426
lradius 22.4531
lwrist -2.45124
lhand -11.244 -23.5144
lfingers 7.12502
lthumb 14.7854 5.93818
rfemur -31.2353 -4.22239 17.6254
rtibia 53.498
rfoot -19.3357 -11.3747
rtoes -17.0982
lfemur -8.85706 3.60715 -29.7774
ltibia 22.7171
lfoot -17.8924 7.19356
ltoes -1.55291
116
root 9.76605 16.492 -16.7157 3.92811 -0.263166 3.79456
lowerback -5.63862 -2.95316 -5.62701
upperback 0.0894437 -3.63349 1.94943
thorax 3.73684 -1.93283 4.856
lowerneck -21.1939 -3.65782 -12.7021
upperneck 21.8985 -4.23463 12.5689
head 11.1545 -1.47227 6.13203
rclavicle -6.41081e-015 3.4191e-014
rhumerus -45.7631 13.6172 -87.2324
rradius 35.9032
rwrist -19.1337
rhand -28.9902 -24.1599
rfingers 7.12502
rthumb -2.34227 -54.1268
lclavicle -6.41081e-015 3.4191e-014
lhumerus -15.0232 -8.54009 83.7793
lradius 22.8471
lwrist -2.29326
lhand -11.2399 -23.6239
lfingers 7.12502
lthumb 14.7894 5.82835
rfemur -31.7869 -3.89613 17.6456
rtibia 51.8899
rfoot -19.7079 -10.829
rtoes -15.2445
lfemur -8.02028 3.47853 -29.7231
ltibia 21.9294
lfoot -17.7157 7.04948
ltoes -0.280594
117
root 9.76571 16.4951 -16.5981 3.96655 0.142005 4.0226
lowerback -5.55327 -3.12404 -5.89592
upperback 0.022828 -3.84658 1.86686
thorax 3.65928 -2.03903 4.90478
lowerneck -21.168 -3.60693 -12.3621
upperneck 21.8972 -4.2385 12.4089
head 11.1373 -1.46447 6.0092
rclavicle -1.59028e-015 -1.82882e-014
rhumerus -45.5225 13.0882 -87.0571
rradius 35.0619
rwrist -18.2987
rhand -29.8423 -21.5732
rfingers 7.12502
rthumb -3.16516 -51.5295
lclavicle -1.59028e-015 -1.82882e-014
lhumerus -14.8423 -8.77162 83.761
lradius 23.3338
lwrist -1.6704
lhand -11.8707 -23.2876
lfingers 7.12502
lthumb 14.1816 6.20828
rfemur -32.296 -3.7105 17.361
rtibia 50.2098
rfoot -19.4424 -11.0014
rtoes -15.1125
lfemur -7.13438 3.27478 -29.9228
ltibia 21.0896
lfoot -17.7782 6.75295
ltoes 0.791555
118
root 9.76786 16.497 -16.474 3.99279 0.439802 4.37769
lowerback -5.61154 -3.18643 -6.2486
upperback 0.0618945 -3.89863 1.76024
thorax 3.75654 -2.07408 4.98212
lowerneck -21.5037 -3.69848 -12.2816
upperneck 22.1396 -4.36976 12.3815
head 11.3099 -1.51245 5.97831
rclavicle 4.67889e-014 -2.3059e-014
rhumerus -45.8989 13.3792 -87.383
rradius 35.3487
rwrist -19.0079
rhand -28.9266 -24.0053
rfingers 7.12502
rthumb -2.28087 -53.9729
lclavicle 4.67889e-014 -2.3059e-014
lhumerus -14.5603 -9.80109 83.9507
lradius 24.0247
lwrist 0.0426915
lhand -12.3812 -23.1022
lfingers 7.12502
lthumb 13.6896 6.42753
rfemur -32.7443 -3.38015 16.8654
rtibia 48.4582
rfoot -19.4406 -10.902
rtoes -22.7717
lfemur -6.24434 3.18778 -30.2675
ltibia 20.2698
lfoot -17.9301 6.50363
ltoes 1.24099
119
root 9.77209 16.4973 -16.3468 4.04092 0.498148 4.40887
lowerback -5.80256 -3.01218 -6.10649
upperback 0.119916 -3.65986 1.68816
thorax 3.87795 -1.95657 4.84109
lowerneck -21.3032 -3.90686 -12.7342
upperneck 22.0653 -4.61907 12.7121
head 11.3025 -1.63073 6.14152
rclavicle 3.9583e-014 8.74653e-015
rhumerus -46.7358 13.5451 -87.7328
rradius 36.283
rwrist -19.8343
rhand -28.6372 -28.8346
rfingers 7.12502
rthumb -2.00131 -58.805
lclavicle 3.9583e-014 8.74653e-015
lhumerus -14.1909 -11.4352 84.2792
lradius 24.6338
lwrist 1.74167
lhand -12.5967 -23.1435
lfingers 7.12502
lthumb 13.4819 6.40011
rfemur -33.2329 -2.79235 16.737
rtibia 46.6624
rfoot -19.4605 -10.9414
rtoes -18.9811
lfemur -5.3692 3.33214 -30.2789
ltibia 19.39
lfoot -17.7292 6.47883
ltoes 0.251595
120
root 9.77299 16.4908 -16.2179 4.08928 0.569431 4.33633
lowerback -5.02575 -2.99577 -6.56927
upperback -0.476517 -3.687 2.22584
thorax 2.88906 -1.93643 5.71831
lowerneck -20.7933 -3.95272 -13.4081
upperneck 22.2896 -4.51001 12.6074
head 11.2846 -1.66957 6.24231
rclavicle 1.02871e-014 -3.89618e-014
rhumerus -48.3386 14.2706 -87.3509
rradius 37.2769
rwrist -19.8132
rhand -29.5492 -29.801
rfingers 7.12502
rthumb -2.88211 -59.7613
lclavicle 1.02871e-014 -3.89618e-014
lhumerus -14.9813 -12.3124 85.445
lradius 25.3217
lwrist 3.15764
lhand -13.2829 -22.9411
lfingers 7.12502
lthumb 12.8205 6.64523
rfemur -33.6798 -2.11234 16.7068
rtibia 44.8815
rfoot -19.4354 -11.0159
rtoes -18.5994
lfemur -4.42829 3.513 -30.1449
ltibia 18.3959
lfoot -17.5351 6.21492
ltoes 1.08102
121
root 9.77053 16.4848 -16.095 4.23543 0.943526 4.62832
lowerback -5.14336 -3.25093 -7.05416
upperback -0.478758 -3.99298 2.24695
thorax 3.03391 -2.10083 5.9799
lowerneck -20.8103 -3.86544 -13.2712
upperneck 22.1889 -4.42166 12.6089
head 11.2327 -1.61578 6.22815
rclavicle -4.77083e-015 -1.43125e-014
rhumerus -48.1789 14.3146 -87.3108
rradius 37.02
rwrist -19.6555
rhand -28.6507 -28.116
rfingers 7.12502
rthumb -2.01434 -58.0863
lclavicle -4.77083e-015 -1.43125e-014
lhumerus -15.0291 -12.5927 85.5743
lradius 26.2034
lwrist 3.83013
lhand -13.8398 -22.9251
lfingers 7.12502
lthumb 12.2836 6.69415
rfemur -34.132 -1.65284 16.2018
rtibia 43.127
rfoot -19.9375 -10.6747
rtoes -18.104
lfemur -3.5493 3.59741 -30.3647
ltibia 17.3269
lfoot -17.416 5.59873
ltoes 2.06956
122
root 9.76943 16.4834 -15.9727 4.4063 1.29616 5.13876
lowerback -6.13997 -3.43029 -7.1982
upperback 0.0548625 -4.12275 1.77316
thorax 4.1483 -2.21668 5.47842
lowerneck -21.0843 -3.84599 -12.7655
upperneck 21.9423 -4.50271 12.5836
head 11.1932 -1.60132 6.10731
rclavicle 5.30755e-014 1.19271e-014
rhumerus -46.8623 13.4791 -87.5517
rradius 35.7714
rwrist -19.8181
rhand -28.1921 -26.4994
rfingers 7.12502
rthumb -1.57143 -56.4734
lclavicle 5.30755e-014 1.19271e-014
lhumerus -14.2118 -13.4944 85.0264
lradius 27.171
lwrist 4.44992
lhand -13.7598 -22.7739
lfingers 7.12502
lthumb 12.3607 6.84068
rfemur -34.6206 -1.2905 15.4342
rtibia 41.367
rfoot -20.3859 -10.4601
rtoes -20.0494
lfemur -2.6618 3.5921 -30.8507
ltibia 16.2129
lfoot -17.264 5.36563
ltoes 0.796827
